#N canvas 155 23 1680 1001 10;
#X obj 1085 71 sel 0 1 2 3 4 5;
#X obj 806 45 pack s;
#X obj 806 70 sel red orange yellow green blue purple;
#X obj 806 19 r patternColor;
#X obj 1085 21 r patternType;
#X obj 1325 17 r patternXCoord;
#X obj 1561 16 r patternYCoord;
#X msg 102 930 0;
#X msg 283 431 1;
#X msg 23 791 5;
#X obj 225 431 random 5;
#X obj 21 719 loadbang;
#X obj 18 840 loadbang;
#X obj 22 770 loadbang;
#X obj 1202 918 dac~;
#X obj 227 398 delay 100;
#X obj 243 320 tgl 15 0 empty empty empty 17 7 0 10 -262144 -1 -1 0
1;
#X msg 540 432 1;
#X obj 470 431 random 5;
#X obj 471 405 delay 100;
#X obj 497 328 tgl 15 0 empty empty empty 17 7 0 10 -262144 -1 -1 0
1;
#X obj 520 380 random 500;
#X msg 91 901 0 2 4 7 11;
#X msg 18 900 0 2 4 7 9;
#X obj 94 875 r state-2;
#X obj 174 878 r state-3;
#X msg 172 901 0 3 4 7 11;
#X obj 262 876 r state-4;
#X msg 262 902 0 3 4 5 11;
#X obj 352 869 r state-5;
#X obj 34 866 r state-1;
#X msg 350 904 0 3 5 7 10;
#X obj 338 85 bng 15 250 50 0 empty empty empty 17 7 0 10 -262144 -1
-1;
#X obj 272 79 bng 15 250 50 0 empty empty empty 17 7 0 10 -262144 -1
-1;
#X obj 540 82 bng 15 250 50 0 empty empty empty 17 7 0 10 -262144 -1
-1;
#X obj 401 87 bng 15 250 50 0 empty empty empty 17 7 0 10 -262144 -1
-1;
#X obj 473 81 bng 15 250 50 0 empty empty empty 17 7 0 10 -262144 -1
-1;
#X obj 272 101 s state-1;
#X obj 339 103 s state-2;
#X obj 401 107 s state-3;
#X obj 473 101 s state-4;
#X obj 541 99 s state-5;
#X obj 352 481 synth;
#X obj 210 138 r state-1;
#X obj 455 147 r state-2;
#X msg 734 437 1;
#X obj 676 437 random 5;
#X obj 678 404 delay 100;
#X obj 700 327 tgl 15 0 empty empty empty 17 7 0 10 -262144 -1 -1 0
1;
#X msg 965 438 1;
#X obj 895 437 random 5;
#X obj 896 411 delay 100;
#X obj 922 334 tgl 15 0 empty empty empty 17 7 0 10 -262144 -1 -1 0
1;
#X obj 700 148 r state-3;
#X obj 923 146 r state-4;
#X msg 1174 438 1;
#X obj 1104 437 random 5;
#X obj 1105 411 delay 100;
#X obj 1131 334 tgl 15 0 empty empty empty 17 7 0 10 -262144 -1 -1
0 1;
#X obj 1129 173 r state-5;
#X obj 17 743 array define arrayScale;
#X obj 25 814 array size arrayScale;
#X obj 21 973 array set arrayScale;
#X obj 224 455 array get arrayScale;
#X obj 470 455 array get arrayScale;
#X obj 675 461 array get arrayScale;
#X obj 894 461 array get arrayScale;
#X obj 1103 462 array get arrayScale;
#X obj 250 345 metro 1000;
#X obj 277 373 random 1000;
#X msg 242 281 1;
#X obj 239 157 r state-2;
#X obj 259 178 r state-3;
#X obj 277 196 r state-4;
#X obj 297 218 r state-5;
#X obj 478 170 r state-3;
#X obj 496 188 r state-4;
#X obj 516 210 r state-5;
#X msg 494 280 1;
#X obj 747 170 r state-4;
#X obj 767 192 r state-5;
#X msg 701 280 1;
#X obj 952 166 r state-5;
#X msg 921 282 1;
#X obj 495 351 metro 750;
#X obj 728 380 random 250;
#X obj 701 351 metro 500;
#X obj 920 357 metro 250;
#X obj 945 386 random 125;
#X msg 1148 310 1;
#X msg 635 434 0.33;
#X msg 835 444 0.33;
#X msg 378 450 0.33;
#X msg 1061 441 0.33;
#X msg 1268 441 0.33;
#X msg 1409 438 1;
#X obj 1339 437 random 5;
#X obj 1340 411 delay 100;
#X obj 1366 334 tgl 15 0 empty empty empty 17 7 0 10 -262144 -1 -1
0 1;
#X obj 1338 462 array get arrayScale;
#X msg 1366 268 1;
#X msg 1503 441 0.33;
#X obj 1128 357 metro 125;
#X obj 1364 357 metro 63;
#X obj 1154 386 random 63;
#X obj 1389 386 random 31;
#X obj 320 238 r state-6;
#X obj 529 231 r state-6;
#X obj 782 214 r state-6;
#X obj 971 185 r state-6;
#X obj 1177 193 r state-6;
#X obj 1363 162 r state-6;
#X obj 443 869 r state-6;
#X msg 448 903 0 3 5 7 8;
#X obj 618 83 bng 15 250 50 0 empty empty empty 17 7 0 10 -262144 -1
-1;
#X obj 617 101 s state-6;
#X obj 607 479 synth;
#X obj 1032 485 synth;
#X obj 803 487 synth;
#X obj 1241 485 synth;
#X obj 1476 485 synth;
#X obj 573 262 r state-1;
#X msg 551 298 0;
#X msg 746 300 0;
#X obj 781 275 r state-2;
#X obj 764 255 r state-1;
#X msg 969 312 0;
#X obj 1004 267 r state-2;
#X obj 987 247 r state-1;
#X obj 1015 291 r state-3;
#X msg 1189 313 0;
#X obj 1223 239 r state-2;
#X obj 1206 219 r state-1;
#X obj 1234 263 r state-3;
#X obj 1242 292 r state-4;
#X msg 1395 305 0;
#X obj 1417 203 r state-2;
#X obj 1400 183 r state-1;
#X obj 1428 227 r state-3;
#X obj 1436 256 r state-4;
#X obj 1440 284 r state-5;
#X obj 82 82 t b;
#X obj 31 128 random 1500;
#X obj 40 156 + 500;
#X obj 58 208 osc~;
#X obj 85 247 *~ 0.75;
#X obj 92 293 dac~;
#X obj 121 73 print numberOfClicks;
#X obj 89 44 receive n;
#X connect 1 0 2 0;
#X connect 3 0 1 0;
#X connect 4 0 0 0;
#X connect 7 0 62 1;
#X connect 8 0 63 1;
#X connect 9 0 61 0;
#X connect 10 0 63 0;
#X connect 11 0 60 0;
#X connect 12 0 23 0;
#X connect 12 0 7 0;
#X connect 13 0 9 0;
#X connect 15 0 92 0;
#X connect 15 0 8 0;
#X connect 15 0 10 0;
#X connect 16 0 68 0;
#X connect 17 0 64 1;
#X connect 18 0 64 0;
#X connect 19 0 90 0;
#X connect 19 0 17 0;
#X connect 19 0 18 0;
#X connect 20 0 84 0;
#X connect 21 0 19 1;
#X connect 22 0 62 0;
#X connect 23 0 62 0;
#X connect 24 0 22 0;
#X connect 25 0 26 0;
#X connect 26 0 62 0;
#X connect 27 0 28 0;
#X connect 28 0 62 0;
#X connect 29 0 31 0;
#X connect 30 0 23 0;
#X connect 31 0 62 0;
#X connect 32 0 38 0;
#X connect 33 0 37 0;
#X connect 34 0 41 0;
#X connect 35 0 39 0;
#X connect 36 0 40 0;
#X connect 42 0 14 0;
#X connect 43 0 70 0;
#X connect 44 0 78 0;
#X connect 45 0 65 1;
#X connect 46 0 65 0;
#X connect 47 0 91 0;
#X connect 47 0 45 0;
#X connect 47 0 46 0;
#X connect 48 0 86 0;
#X connect 49 0 66 1;
#X connect 50 0 66 0;
#X connect 51 0 93 0;
#X connect 51 0 49 0;
#X connect 51 0 50 0;
#X connect 52 0 87 0;
#X connect 53 0 81 0;
#X connect 54 0 83 0;
#X connect 55 0 67 1;
#X connect 56 0 67 0;
#X connect 57 0 94 0;
#X connect 57 0 55 0;
#X connect 57 0 56 0;
#X connect 58 0 102 0;
#X connect 59 0 89 0;
#X connect 63 0 42 0;
#X connect 64 0 116 0;
#X connect 65 0 118 0;
#X connect 66 0 117 0;
#X connect 67 0 119 0;
#X connect 68 0 15 0;
#X connect 68 0 69 0;
#X connect 69 0 15 1;
#X connect 70 0 16 0;
#X connect 71 0 70 0;
#X connect 72 0 70 0;
#X connect 73 0 70 0;
#X connect 74 0 70 0;
#X connect 75 0 78 0;
#X connect 76 0 78 0;
#X connect 77 0 78 0;
#X connect 78 0 20 0;
#X connect 79 0 81 0;
#X connect 80 0 81 0;
#X connect 81 0 48 0;
#X connect 82 0 83 0;
#X connect 83 0 52 0;
#X connect 84 0 19 0;
#X connect 84 0 21 0;
#X connect 85 0 47 1;
#X connect 86 0 47 0;
#X connect 86 0 85 0;
#X connect 87 0 51 0;
#X connect 87 0 88 0;
#X connect 88 0 51 1;
#X connect 89 0 58 0;
#X connect 90 0 116 1;
#X connect 91 0 118 1;
#X connect 92 0 42 1;
#X connect 93 0 117 1;
#X connect 94 0 119 1;
#X connect 95 0 99 1;
#X connect 96 0 99 0;
#X connect 97 0 101 0;
#X connect 97 0 95 0;
#X connect 97 0 96 0;
#X connect 98 0 103 0;
#X connect 99 0 120 0;
#X connect 100 0 98 0;
#X connect 101 0 120 1;
#X connect 102 0 57 0;
#X connect 102 0 104 0;
#X connect 103 0 97 0;
#X connect 103 0 105 0;
#X connect 104 0 57 1;
#X connect 105 0 97 1;
#X connect 106 0 70 0;
#X connect 107 0 78 0;
#X connect 108 0 81 0;
#X connect 109 0 83 0;
#X connect 110 0 89 0;
#X connect 111 0 100 0;
#X connect 112 0 113 0;
#X connect 113 0 62 0;
#X connect 114 0 115 0;
#X connect 116 0 14 1;
#X connect 117 0 14 1;
#X connect 118 0 14 0;
#X connect 119 0 14 0;
#X connect 120 0 14 1;
#X connect 121 0 122 0;
#X connect 122 0 20 0;
#X connect 123 0 48 0;
#X connect 124 0 123 0;
#X connect 125 0 123 0;
#X connect 126 0 52 0;
#X connect 127 0 126 0;
#X connect 128 0 126 0;
#X connect 129 0 126 0;
#X connect 130 0 58 0;
#X connect 131 0 130 0;
#X connect 132 0 130 0;
#X connect 133 0 130 0;
#X connect 134 0 130 0;
#X connect 135 0 98 0;
#X connect 136 0 135 0;
#X connect 137 0 135 0;
#X connect 138 0 135 0;
#X connect 139 0 135 0;
#X connect 140 0 135 0;
#X connect 141 0 142 0;
#X connect 142 0 143 0;
#X connect 143 0 144 0;
#X connect 144 0 145 0;
#X connect 145 0 146 0;
#X connect 145 0 146 1;
#X connect 148 0 141 0;
#X connect 148 0 147 0;
