#N canvas 323 255 1001 675 10;
#X obj 81 5 inlet;
#X obj 131 583 outlet~;
#X obj 157 387 *~;
#X obj 201 9 inlet;
#X obj 196 347 line~;
#X obj 203 144 pack f f;
#X obj 224 93 random 450;
#X obj 223 118 + 50;
#X obj 291 219 t b;
#X msg 303 254 0;
#X obj 229 34 t b;
#X obj 352 257 random 450;
#X obj 350 286 + 25;
#X obj 330 327 pack f f;
#X obj 106 183 mtof;
#X obj 112 131 + 48;
#X msg 167 322 0.5;
#X obj 322 140 random 300;
#X obj 212 192 bng 15 250 50 0 empty empty empty 17 7 0 10 -262144
-1 -1;
#X obj 257 236 bng 15 250 50 0 empty empty empty 17 7 0 10 -262144
-1 -1;
#X obj 232 168 t b;
#X obj 105 348 phasor~;
#X obj 319 163 + 10;
#X obj 143 530 lop~;
#X obj 171 507 + 500;
#X obj 251 62 s \$0-synthbang;
#X obj 317 101 r \$0-synthbang;
#X obj 159 432 r \$0-synthbang;
#X obj 268 189 delay 10;
#X obj 290 359 r state-1;
#X obj 305 379 r state-2;
#X obj 323 402 r state-3;
#X obj 345 429 r state-4;
#X obj 347 456 r state-5;
#X msg 271 380 100;
#X obj 173 482 random 100;
#X msg 280 399 200;
#X msg 288 419 400;
#X msg 297 443 800;
#X msg 299 474 1600;
#X msg 301 495 3200;
#X obj 356 491 r state-6;
#X msg 555 554 0;
#X obj 471 464 loadbang;
#X msg 544 525 0 2 4 7 11;
#X msg 471 524 0 2 4 7 9;
#X obj 547 499 r state-2;
#X obj 627 502 r state-3;
#X msg 625 525 0 3 4 7 11;
#X obj 715 500 r state-4;
#X msg 715 526 0 3 4 5 11;
#X obj 805 493 r state-5;
#X obj 487 490 r state-1;
#X msg 803 528 0 3 5 7 10;
#X obj 474 597 array set arrayScale;
#X obj 896 493 r state-6;
#X msg 901 527 0 3 5 7 8;
#X obj 75 87 array get arrayScale;
#X obj 110 37 t b;
#X msg 128 61 1;
#X obj 604 226 array define arrayScale;
#X obj 601 201 loadbang;
#X obj 618 320 array size arrayScale;
#X obj 612 263 loadbang;
#X msg 622 283 5;
#X connect 0 0 58 0;
#X connect 0 0 57 0;
#X connect 2 0 23 0;
#X connect 3 0 5 0;
#X connect 3 0 10 0;
#X connect 4 0 2 1;
#X connect 5 0 4 0;
#X connect 5 0 18 0;
#X connect 5 0 20 0;
#X connect 6 0 7 0;
#X connect 7 0 5 1;
#X connect 8 0 9 0;
#X connect 8 0 11 0;
#X connect 9 0 13 0;
#X connect 10 0 6 0;
#X connect 10 0 25 0;
#X connect 11 0 12 0;
#X connect 12 0 13 1;
#X connect 13 0 4 0;
#X connect 14 0 21 0;
#X connect 15 0 14 0;
#X connect 16 0 2 1;
#X connect 17 0 22 0;
#X connect 20 0 28 0;
#X connect 21 0 2 0;
#X connect 22 0 28 1;
#X connect 23 0 1 0;
#X connect 24 0 23 1;
#X connect 26 0 17 0;
#X connect 27 0 35 0;
#X connect 28 0 8 0;
#X connect 28 0 19 0;
#X connect 29 0 34 0;
#X connect 30 0 36 0;
#X connect 31 0 37 0;
#X connect 32 0 38 0;
#X connect 33 0 39 0;
#X connect 34 0 35 1;
#X connect 35 0 24 0;
#X connect 36 0 35 1;
#X connect 37 0 35 1;
#X connect 38 0 35 1;
#X connect 39 0 35 1;
#X connect 40 0 35 1;
#X connect 41 0 40 0;
#X connect 42 0 54 1;
#X connect 43 0 45 0;
#X connect 43 0 42 0;
#X connect 44 0 54 0;
#X connect 45 0 54 0;
#X connect 46 0 44 0;
#X connect 47 0 48 0;
#X connect 48 0 54 0;
#X connect 49 0 50 0;
#X connect 50 0 54 0;
#X connect 51 0 53 0;
#X connect 52 0 45 0;
#X connect 53 0 54 0;
#X connect 55 0 56 0;
#X connect 56 0 54 0;
#X connect 57 0 15 0;
#X connect 58 0 59 0;
#X connect 59 0 57 1;
#X connect 61 0 60 0;
#X connect 63 0 64 0;
#X connect 64 0 62 0;
