#N canvas 948 347 605 648 10;
#X obj 112 35 inlet;
#X obj 131 583 outlet~;
#X obj 157 387 *~;
#X obj 201 9 inlet;
#X obj 196 347 line~;
#X obj 203 144 pack f f;
#X obj 224 93 random 450;
#X obj 223 118 + 50;
#X obj 291 219 t b;
#X msg 303 254 0;
#X obj 229 34 t b;
#X obj 352 257 random 450;
#X obj 350 286 + 25;
#X obj 330 327 pack f f;
#X obj 106 183 mtof;
#X obj 112 131 + 48;
#X msg 167 322 0.5;
#X obj 322 140 random 300;
#X obj 212 192 bng 15 250 50 0 empty empty empty 17 7 0 10 -262144
-1 -1;
#X obj 257 236 bng 15 250 50 0 empty empty empty 17 7 0 10 -262144
-1 -1;
#X obj 232 168 t b;
#X obj 105 348 phasor~;
#X obj 319 163 + 10;
#X obj 143 530 lop~;
#X obj 171 507 + 500;
#X obj 251 62 s \$0-synthbang;
#X obj 317 101 r \$0-synthbang;
#X obj 159 432 r \$0-synthbang;
#X obj 268 189 delay 10;
#X obj 290 359 r state-1;
#X obj 305 379 r state-2;
#X obj 323 402 r state-3;
#X obj 345 429 r state-4;
#X obj 347 456 r state-5;
#X msg 271 380 100;
#X obj 173 482 random 100;
#X msg 280 399 200;
#X msg 288 419 400;
#X msg 297 443 800;
#X msg 299 474 1600;
#X msg 301 495 3200;
#X obj 356 491 r state-6;
#X connect 0 0 15 0;
#X connect 2 0 23 0;
#X connect 3 0 5 0;
#X connect 3 0 10 0;
#X connect 4 0 2 1;
#X connect 5 0 4 0;
#X connect 5 0 18 0;
#X connect 5 0 20 0;
#X connect 6 0 7 0;
#X connect 7 0 5 1;
#X connect 8 0 9 0;
#X connect 8 0 11 0;
#X connect 9 0 13 0;
#X connect 10 0 6 0;
#X connect 10 0 25 0;
#X connect 11 0 12 0;
#X connect 12 0 13 1;
#X connect 13 0 4 0;
#X connect 14 0 21 0;
#X connect 15 0 14 0;
#X connect 16 0 2 1;
#X connect 17 0 22 0;
#X connect 20 0 28 0;
#X connect 21 0 2 0;
#X connect 22 0 28 1;
#X connect 23 0 1 0;
#X connect 24 0 23 1;
#X connect 26 0 17 0;
#X connect 27 0 35 0;
#X connect 28 0 8 0;
#X connect 28 0 19 0;
#X connect 29 0 34 0;
#X connect 30 0 36 0;
#X connect 31 0 37 0;
#X connect 32 0 38 0;
#X connect 33 0 39 0;
#X connect 34 0 35 1;
#X connect 35 0 24 0;
#X connect 36 0 35 1;
#X connect 37 0 35 1;
#X connect 38 0 35 1;
#X connect 39 0 35 1;
#X connect 40 0 35 1;
#X connect 41 0 40 0;
